<svg id="Layer_1" data-name="Layer 1" xmlns="http://www.w3.org/2000/svg" xmlns:xlink="http://www.w3.org/1999/xlink" viewBox="0 0 1507.68 791.97"><defs><style>.cls-1{fill:url(#linear-gradient);}.cls-2{fill:#fff;}.cls-3{fill:url(#linear-gradient-2);}</style><linearGradient id="linear-gradient" x1="753.84" y1="756.05" x2="753.84" y2="637.04" gradientUnits="userSpaceOnUse"><stop offset="0" stop-color="#fa3100"/><stop offset="0.82" stop-color="#ff5c01"/></linearGradient><linearGradient id="linear-gradient-2" x1="745.14" y1="435.93" x2="745.14" y2="141.06" xlink:href="#linear-gradient"/></defs><path class="cls-1" d="M98.6,732c6.48,0,13.65-5.39,13.65-11.88,0-10.67-14.33-12.16-22.41-15C75.59,700.25,63,688.55,63,672.63a35.67,35.67,0,0,1,71-4.92l-23.33,4.92a11.86,11.86,0,0,0-23.72.08c0,10.52,13.33,13.33,21.45,15.74,14.75,4.25,27.76,15.49,27.76,31.76,0,19.71-17.69,35.63-37.37,35.63-18.08,0-34.42-13.26-37.08-30.66l23.33-5c0,6.53,7.09,11.84,13.68,11.84Zm807.31,0c6.49,0,13.65-5.39,13.65-11.88,0-10.67-14.32-12.16-22.4-15-14.26-4.86-26.84-16.56-26.84-32.48a35.66,35.66,0,0,1,71-4.92L918,672.63a11.86,11.86,0,0,0-23.72.08c0,10.52,13.33,13.33,21.45,15.74,14.75,4.25,27.76,15.49,27.76,31.76,0,19.71-17.69,35.63-37.37,35.63-18.08,0-34.43-13.26-37.08-30.66l23.32-5c0,6.53,7.09,11.84,13.69,11.84ZM267.55,638.07v23.28H238.84V755H215.27V661.35H186.48V638.07Zm125.61,70.7v-70.7H416.8v70.77a47.28,47.28,0,0,1-94.55,0V638.07h23.63v70.7a23.86,23.86,0,0,0,23.64,23.49C382.25,732.26,393.16,721.44,393.16,708.77ZM507,638.07c18.36,0,32.73,7.29,42.71,17.18q15.66,15.74,15.66,41.37t-15.66,41.23Q532.4,755,507,755H475.84V638.14H507Zm-.07,23.28h-7.62v70.19h7.84c21.07,0,34.8-14,34.8-35.1C541.9,675.53,527.93,661.35,506.88,661.35ZM620,638.07h23.5V755H620ZM799.43,654.6q17.48,17.48,17.48,42a59.3,59.3,0,0,1-59.39,59.17,59.17,59.17,0,0,1-59.31-59.17q0-24.44,17.4-42t41.91-17.47Q782,637.13,799.43,654.6Zm-67.07,16.68a35.54,35.54,0,0,0,0,50.32,35.6,35.6,0,1,0,0-50.32Zm397.08-33.21v93.54h47V755h-70.49V638.07Zm125.17,0v93.54h47V755h-70.48V638.07Zm149.33,117.69a59.19,59.19,0,0,1-59.25-59.17q0-24.44,17.41-42t41.84-17.47l-.08.29a60.35,60.35,0,0,1,42.06,17.33l-16.75,16.75A34.62,34.62,0,0,0,1404,661.06a33.9,33.9,0,0,0-25.09,10.44,35.54,35.54,0,0,0,0,50.32,35.62,35.62,0,0,0,50.32-.07L1446,738.5A59,59,0,0,1,1403.94,755.76Z"/><path class="cls-2" d="M486,133.33c-52-60.7-136.81-97.41-239.73-97.41H61.69V541.07H246.27c102.88,0,187.66-37,239.68-97.85-29.59-45.43-46.81-98.75-46.81-155.11S456.36,178.68,486,133.33ZM265.36,427.08H187.43V149.91h77.93c86,0,147.79,57.32,147.79,138.2S351.4,427.08,265.36,427.08Z"/><path class="cls-3" d="M745.16,141.06c-77.23,0-142.66,67.64-142.66,147.05,0,80.18,65.43,147.82,142.66,147.82s142.62-67.64,142.62-147.82C887.78,208.7,822.35,141.06,745.16,141.06Z"/><path class="cls-2" d="M902.93,35.92C953.56,66,995,109.77,1021.21,161.45h114V541.07H1261V161.45h185V35.92Z"/></svg>