<svg id="Layer_1" data-name="Layer 1" xmlns="http://www.w3.org/2000/svg" viewBox="0 0 1507.68 834.78"><path d="M117.86,762c10.18,0,21.42-8.46,21.42-18.65,0-16.75-22.48-19.09-35.17-23.49-22.38-7.62-42.13-26-42.13-51A56,56,0,0,1,173.4,661.1l-36.62,7.74a18.62,18.62,0,0,0-37.23.11c0,16.53,20.92,20.93,33.67,24.71,23.15,6.68,43.58,24.33,43.58,49.87,0,31-27.77,55.94-58.66,55.94-28.39,0-54-20.82-58.22-48.14l36.62-7.8c0,10.25,11.13,18.59,21.48,18.59Zm1267.42,0c10.18,0,21.42-8.46,21.42-18.65,0-16.75-22.48-19.09-35.17-23.49-22.38-7.62-42.13-26-42.13-51a56,56,0,0,1,111.42-7.74l-36.62,7.74A18.62,18.62,0,0,0,1367,669c0,16.53,20.93,20.93,33.68,24.71,23.15,6.68,43.58,24.33,43.58,49.87,0,31-27.77,55.94-58.67,55.94-28.38,0-54-20.82-58.21-48.14l36.62-7.8c0,10.25,11.13,18.59,21.48,18.59ZM383.1,614.58v36.54H338v147H301v-147h-45.2V614.58Zm197.2,111v-111h37.11v111.1q0,30.74-21.74,52.48T543.3,799.79q-30.84,0-52.59-21.63T469,725.68V614.58h37.11v111c0,20,16.94,36.88,37.11,36.88C563.16,762.45,580.3,745.45,580.3,725.57Zm178.64-111c28.82,0,51.39,11.45,67,27q24.59,24.69,24.59,64.94T826,771.22q-27.09,26.87-67,26.86H710.1V614.69h48.84Zm-.11,36.54h-12V761.31h12.3c33.08,0,54.64-22,54.64-55.1C813.81,673.38,791.88,651.12,758.83,651.12Zm177.61-36.54h36.88v183.5H936.44Zm281.67,25.95q27.44,27.44,27.44,65.91t-27.44,65.8q-27.31,27.09-65.8,27.09t-65.8-27.09q-27.32-27.32-27.32-65.8t27.32-65.91q27.43-27.43,65.8-27.43T1218.11,640.53Zm-105.3,26.18q-16.39,16.62-16.39,39.5A55.77,55.77,0,0,0,1152.31,762q22.89,0,39.39-16.28a53.45,53.45,0,0,0,16.51-39.51q0-23-16.51-39.5t-39.39-16.39Q1129,650.32,1112.81,666.71Z"/><path d="M487.77,132.4C435.75,71.7,351,35,248,35H63.46V540.13H248c102.88,0,187.66-37,239.69-97.84-29.6-45.43-46.82-98.76-46.82-155.12S458.13,177.74,487.77,132.4ZM267.13,426.15H189.21V149h77.92c86.05,0,147.79,57.32,147.79,138.2S353.18,426.15,267.13,426.15Z"/><path d="M746.94,140.12c-77.24,0-142.67,67.65-142.67,147.05C604.27,367.35,669.7,435,746.94,435s142.62-67.65,142.62-147.83C889.56,207.77,824.13,140.12,746.94,140.12Z"/><path d="M904.7,35c50.64,30.07,92.12,73.85,118.28,125.53h114V540.13h125.74V160.52h185V35Z"/></svg>